<mxfile host="app.diagrams.net" modified="2024-04-29T11:45:01.906Z" agent="Mozilla/5.0 (Windows NT 10.0; Win64; x64) AppleWebKit/537.36 (KHTML, like Gecko) Chrome/124.0.0.0 Safari/537.36" etag="UWFQuPBj78jTwdjSLhag" version="24.3.0" type="google">
  <diagram name="Pagina-1" id="5_8NuAnKSXow_BAEVE85">
    <mxGraphModel grid="1" page="1" gridSize="10" guides="1" tooltips="1" connect="1" arrows="1" fold="1" pageScale="1" pageWidth="827" pageHeight="1169" background="#ffffff" math="0" shadow="0">
      <root>
        <mxCell id="0" />
        <mxCell id="1" parent="0" />
        <mxCell id="BioAJmUW66gxUdcCqYIB-2" value="" style="shape=umlLifeline;perimeter=lifelinePerimeter;whiteSpace=wrap;html=1;container=1;dropTarget=0;collapsible=0;recursiveResize=0;outlineConnect=0;portConstraint=eastwest;newEdgeStyle={&quot;curved&quot;:0,&quot;rounded&quot;:0};participant=umlActor;" vertex="1" parent="1">
          <mxGeometry x="160" y="180" width="20" height="820" as="geometry" />
        </mxCell>
        <mxCell id="BioAJmUW66gxUdcCqYIB-3" value=":System" style="shape=umlLifeline;perimeter=lifelinePerimeter;whiteSpace=wrap;html=1;container=1;dropTarget=0;collapsible=0;recursiveResize=0;outlineConnect=0;portConstraint=eastwest;newEdgeStyle={&quot;curved&quot;:0,&quot;rounded&quot;:0};" vertex="1" parent="1">
          <mxGeometry x="510" y="180" width="100" height="820" as="geometry" />
        </mxCell>
        <mxCell id="MDIZcdlT1hImLt6TdKO_-2" value="1. creoTabellaCucina(Tipo)" style="html=1;verticalAlign=bottom;endArrow=block;curved=0;rounded=0;" edge="1" parent="1" source="BioAJmUW66gxUdcCqYIB-2" target="BioAJmUW66gxUdcCqYIB-3">
          <mxGeometry x="-0.0231" width="80" relative="1" as="geometry">
            <mxPoint x="170" y="310" as="sourcePoint" />
            <mxPoint x="250" y="310" as="targetPoint" />
            <Array as="points">
              <mxPoint x="370" y="280" />
            </Array>
            <mxPoint as="offset" />
          </mxGeometry>
        </mxCell>
        <mxCell id="MDIZcdlT1hImLt6TdKO_-3" value="TabellaTurniCucina creata" style="html=1;verticalAlign=bottom;endArrow=open;dashed=1;endSize=8;curved=0;rounded=0;" edge="1" parent="1" source="BioAJmUW66gxUdcCqYIB-3" target="BioAJmUW66gxUdcCqYIB-2">
          <mxGeometry x="0.0242" relative="1" as="geometry">
            <mxPoint x="530" y="350" as="sourcePoint" />
            <mxPoint x="450" y="350" as="targetPoint" />
            <Array as="points">
              <mxPoint x="370" y="320" />
            </Array>
            <mxPoint as="offset" />
          </mxGeometry>
        </mxCell>
        <mxCell id="MDIZcdlT1hImLt6TdKO_-6" value="2. creoTabellaServizio(Tipo)" style="html=1;verticalAlign=bottom;endArrow=block;rounded=0;" edge="1" parent="1">
          <mxGeometry width="80" relative="1" as="geometry">
            <mxPoint x="170.00272727272724" y="380" as="sourcePoint" />
            <mxPoint x="559.23" y="380" as="targetPoint" />
            <Array as="points">
              <mxPoint x="359.73" y="380" />
            </Array>
          </mxGeometry>
        </mxCell>
        <mxCell id="MDIZcdlT1hImLt6TdKO_-7" value="TabellaTurniServizio Creata" style="html=1;verticalAlign=bottom;endArrow=open;dashed=1;endSize=8;rounded=0;" edge="1" parent="1">
          <mxGeometry relative="1" as="geometry">
            <mxPoint x="559.23" y="420" as="sourcePoint" />
            <mxPoint x="170.00272727272724" y="420" as="targetPoint" />
            <Array as="points">
              <mxPoint x="359.73" y="420" />
            </Array>
          </mxGeometry>
        </mxCell>
        <mxCell id="MDIZcdlT1hImLt6TdKO_-10" value="3. aggiungoTurno(TipoT)" style="html=1;verticalAlign=bottom;endArrow=block;curved=0;rounded=0;" edge="1" parent="1">
          <mxGeometry x="-0.0244" width="80" relative="1" as="geometry">
            <mxPoint x="170" y="490" as="sourcePoint" />
            <mxPoint x="559.5" y="490" as="targetPoint" />
            <Array as="points">
              <mxPoint x="290" y="490" />
              <mxPoint x="350" y="490" />
            </Array>
            <mxPoint as="offset" />
          </mxGeometry>
        </mxCell>
        <mxCell id="BioAJmUW66gxUdcCqYIB-7" value="turno registrato" style="html=1;verticalAlign=bottom;endArrow=open;dashed=1;endSize=8;curved=0;rounded=0;strokeColor=#0A0A0A;" edge="1" parent="1">
          <mxGeometry x="0.4571" relative="1" as="geometry">
            <mxPoint x="250" y="520" as="sourcePoint" />
            <mxPoint x="170" y="520" as="targetPoint" />
            <Array as="points">
              <mxPoint x="560" y="520" />
              <mxPoint x="250" y="520" />
            </Array>
            <mxPoint as="offset" />
          </mxGeometry>
        </mxCell>
        <mxCell id="BioAJmUW66gxUdcCqYIB-8" value="ok" style="html=1;verticalAlign=bottom;endArrow=open;dashed=1;endSize=8;curved=0;rounded=0;" edge="1" parent="1">
          <mxGeometry x="0.0244" relative="1" as="geometry">
            <mxPoint x="559.5" y="640" as="sourcePoint" />
            <mxPoint x="170" y="640" as="targetPoint" />
            <mxPoint as="offset" />
            <Array as="points">
              <mxPoint x="370" y="640" />
            </Array>
          </mxGeometry>
        </mxCell>
        <mxCell id="BioAJmUW66gxUdcCqYIB-9" value="4. straordinario(Turno,pre-estensione,post-estensione)" style="html=1;verticalAlign=bottom;endArrow=block;curved=0;rounded=0;" edge="1" parent="1">
          <mxGeometry x="-0.0004" width="80" relative="1" as="geometry">
            <mxPoint x="170" y="602.76" as="sourcePoint" />
            <mxPoint x="559.5" y="602.76" as="targetPoint" />
            <mxPoint as="offset" />
          </mxGeometry>
        </mxCell>
        <mxCell id="BioAJmUW66gxUdcCqYIB-10" value="disponibilità" style="html=1;verticalAlign=bottom;endArrow=open;dashed=1;endSize=8;curved=0;rounded=0;" edge="1" parent="1">
          <mxGeometry relative="1" as="geometry">
            <mxPoint x="559.5" y="740" as="sourcePoint" />
            <mxPoint x="170" y="740" as="targetPoint" />
          </mxGeometry>
        </mxCell>
        <mxCell id="BioAJmUW66gxUdcCqYIB-11" value="5. disponibilità(speciale, capoTurno?)" style="html=1;verticalAlign=bottom;endArrow=block;curved=0;rounded=0;" edge="1" parent="1">
          <mxGeometry x="-0.0004" width="80" relative="1" as="geometry">
            <mxPoint x="170" y="700" as="sourcePoint" />
            <mxPoint x="559.5" y="700" as="targetPoint" />
            <mxPoint as="offset" />
          </mxGeometry>
        </mxCell>
        <mxCell id="BioAJmUW66gxUdcCqYIB-12" value="6. mailConferma(Mail, Tipo)" style="html=1;verticalAlign=bottom;endArrow=block;curved=0;rounded=0;" edge="1" parent="1">
          <mxGeometry width="80" relative="1" as="geometry">
            <mxPoint x="170" y="802" as="sourcePoint" />
            <mxPoint x="559.5" y="802" as="targetPoint" />
          </mxGeometry>
        </mxCell>
        <mxCell id="BioAJmUW66gxUdcCqYIB-15" value="ok" style="html=1;verticalAlign=bottom;endArrow=open;dashed=1;endSize=8;curved=0;rounded=0;" edge="1" parent="1">
          <mxGeometry relative="1" as="geometry">
            <mxPoint x="559.5" y="840" as="sourcePoint" />
            <mxPoint x="170" y="840" as="targetPoint" />
          </mxGeometry>
        </mxCell>
        <mxCell id="MDIZcdlT1hImLt6TdKO_-13" value="LOOP" style="shape=umlFrame;whiteSpace=wrap;html=1;pointerEvents=0;" vertex="1" parent="1">
          <mxGeometry x="110" y="460" width="460" height="80" as="geometry" />
        </mxCell>
        <mxCell id="MDIZcdlT1hImLt6TdKO_-17" value="OPT" style="shape=umlFrame;whiteSpace=wrap;html=1;pointerEvents=0;" vertex="1" parent="1">
          <mxGeometry x="110" y="580" width="460" height="80" as="geometry" />
        </mxCell>
        <mxCell id="Tr2UGjNr1xWGJkOfpNbd-4" value="OPT" style="shape=umlFrame;whiteSpace=wrap;html=1;pointerEvents=0;" vertex="1" parent="1">
          <mxGeometry x="110" y="680" width="460" height="70" as="geometry" />
        </mxCell>
      </root>
    </mxGraphModel>
  </diagram>
</mxfile>
